# xmcd CD database file
#
# Track frame offsets:
#	150
#	41489
#	57640
#	68677
#	84348
#	106224
#	126020
#	153737
#	171598
#
# Disc length: 2714 seconds
#
# Revision: 0
# Processed by: cddbd v1.5.2PL0 Copyright (c) Steve Scherf et al.
# Submitted via: CDex 1.51
#
DISCID=780a9809
DTITLE=Kim Skovbye - Wayfarer
DYEAR=1995
DGENRE=New Age
TTITLE0=Wayfarer
TTITLE1=Portrait No. 1
TTITLE2=Crystal
TTITLE3=Robin's Tune
TTITLE4=Eastbound
TTITLE5=Wedding Gift
TTITLE6=Happy Mountain
TTITLE7=Portrait No. 2
TTITLE8=Stranger
EXTD=YEAR: 1995
EXTT0=
EXTT1=
EXTT2=
EXTT3=
EXTT4=
EXTT5=
EXTT6=
EXTT7=
EXTT8=
PLAYORDER=
